<?xml version="1.0" encoding="UTF-8" standalone="no"?>
<!-- Created with Inkscape (http://www.inkscape.org/) -->

<svg
   width="158.44122mm"
   height="98.283913mm"
   viewBox="0 0 158.44122 98.28391"
   version="1.1"
   id="svg1"
   xml:space="preserve"
   sodipodi:docname="logo.svg"
   inkscape:version="1.4 (86a8ad7, 2024-10-11)"
   xmlns:inkscape="http://www.inkscape.org/namespaces/inkscape"
   xmlns:sodipodi="http://sodipodi.sourceforge.net/DTD/sodipodi-0.dtd"
   xmlns="http://www.w3.org/2000/svg"
   xmlns:svg="http://www.w3.org/2000/svg"><sodipodi:namedview
     id="namedview1"
     pagecolor="#ffffff"
     bordercolor="#000000"
     borderopacity="0.25"
     inkscape:showpageshadow="2"
     inkscape:pageopacity="0.0"
     inkscape:pagecheckerboard="0"
     inkscape:deskcolor="#d1d1d1"
     inkscape:document-units="mm"
     inkscape:zoom="0.4926417"
     inkscape:cx="732.78409"
     inkscape:cy="467.88569"
     inkscape:window-width="1366"
     inkscape:window-height="697"
     inkscape:window-x="-8"
     inkscape:window-y="-8"
     inkscape:window-maximized="1"
     inkscape:current-layer="layer1"><inkscape:page
       x="2.3876056e-17"
       y="2.2368279e-07"
       width="158.44122"
       height="98.283913"
       id="page3"
       margin="0 30.61302 113.85896 0"
       bleed="0" /></sodipodi:namedview><defs
     id="defs1"><inkscape:path-effect
       effect="spiro"
       id="path-effect21"
       is_visible="true"
       lpeversion="1" /><inkscape:path-effect
       effect="spiro"
       id="path-effect20"
       is_visible="true"
       lpeversion="1" /><inkscape:path-effect
       effect="spiro"
       id="path-effect19"
       is_visible="true"
       lpeversion="1" /><inkscape:path-effect
       effect="spiro"
       id="path-effect18"
       is_visible="true"
       lpeversion="1" /><inkscape:path-effect
       effect="envelope"
       id="path-effect5"
       is_visible="true"
       lpeversion="1"
       yy="true"
       xx="true"
       bendpath1="M 107.01424,90.549326 H 351.85361"
       bendpath2="M 351.85361,90.549326 V 114.42405"
       bendpath3="M 107.01424,114.42405 H 351.85361"
       bendpath4="M 107.01424,90.549326 V 114.42405" /><inkscape:path-effect
       effect="lattice2"
       gridpoint0="107.01424,90.549326"
       gridpoint1="351.85361,90.549326"
       gridpoint2="107.01424,114.42405"
       gridpoint3="351.85361,114.42405"
       gridpoint4="168.22408,90.549326"
       gridpoint5="290.64377,90.549326"
       gridpoint6="168.22408,114.42405"
       gridpoint7="290.64377,114.42405"
       gridpoint8x9="229.43393,90.549326"
       gridpoint10x11="229.43393,114.42405"
       gridpoint12="107.01424,96.518007"
       gridpoint13="351.85361,96.518007"
       gridpoint14="107.01424,108.45537"
       gridpoint15="351.85361,108.45537"
       gridpoint16="168.22408,96.518007"
       gridpoint17="290.64377,96.518007"
       gridpoint18="168.22408,108.45537"
       gridpoint19="290.64377,108.45537"
       gridpoint20x21="229.43393,96.518007"
       gridpoint22x23="229.43393,108.45537"
       gridpoint24x26="107.01424,102.48669"
       gridpoint25x27="351.85361,102.48669"
       gridpoint28x30="168.22408,102.48669"
       gridpoint29x31="290.64377,102.48669"
       gridpoint32x33x34x35="229.43393,102.48669"
       id="path-effect3"
       is_visible="true"
       lpeversion="1"
       horizontal_mirror="false"
       vertical_mirror="false"
       perimetral="false"
       live_update="true" /><inkscape:path-effect
       effect="envelope"
       id="path-effect4"
       is_visible="true"
       lpeversion="1"
       yy="true"
       xx="true"
       bendpath1="M 51.67228,181.44839 H 168.65945"
       bendpath2="m 168.65945,181.44839 v 46.38187"
       bendpath3="M 51.67228,227.83026 H 168.65945"
       bendpath4="m 51.67228,181.44839 v 46.38187" /><inkscape:path-effect
       effect="lattice2"
       gridpoint0="25.15,56.594276"
       gridpoint1="241.33452,56.594276"
       gridpoint2="22.048336,88.559197"
       gridpoint3="241.33452,88.559197"
       gridpoint4="76.869882,56.594276"
       gridpoint5="186.51297,56.594276"
       gridpoint6="76.869882,88.559197"
       gridpoint7="186.51297,88.559197"
       gridpoint8x9="131.69143,56.594276"
       gridpoint10x11="131.69143,88.559197"
       gridpoint12="22.048336,64.585506"
       gridpoint13="241.33452,64.585506"
       gridpoint14="22.048336,80.567967"
       gridpoint15="241.33452,80.567967"
       gridpoint16="76.869882,64.585506"
       gridpoint17="186.51297,64.585506"
       gridpoint18="76.869882,80.567967"
       gridpoint19="186.51297,80.567967"
       gridpoint20x21="131.69143,64.585506"
       gridpoint22x23="131.69143,80.567967"
       gridpoint24x26="22.048336,72.576737"
       gridpoint25x27="241.33452,72.576737"
       gridpoint28x30="76.869882,72.576737"
       gridpoint29x31="186.51297,72.576737"
       gridpoint32x33x34x35="131.69143,72.576737"
       id="path-effect2"
       is_visible="true"
       lpeversion="1"
       horizontal_mirror="false"
       vertical_mirror="false"
       perimetral="false"
       live_update="true" /><inkscape:path-effect
       effect="fillet_chamfer"
       id="path-effect1"
       is_visible="true"
       lpeversion="1"
       nodesatellites_param="F,0,0,1,0,31.158123,0,1 @ F,0,0,1,0,31.158123,0,1 @ F,0,0,1,0,31.158123,0,1 @ F,0,0,1,0,31.158123,0,1 @ F,0,0,1,0,31.158123,0,1 @ F,0,0,1,0,31.158123,0,1 @ F,0,0,1,0,31.158123,0,1 @ F,0,0,1,0,31.158123,0,1 @ F,0,0,1,0,31.158123,0,1 @ F,0,0,1,0,31.158123,0,1 @ F,0,0,1,0,31.158123,0,1 @ F,0,0,1,0,31.158123,0,1 @ F,0,0,1,0,31.158123,0,1 @ F,0,0,1,0,31.158123,0,1 @ F,0,0,1,0,31.158123,0,1 @ F,0,0,1,0,31.158123,0,1 @ F,0,0,1,0,31.158123,0,1 @ F,0,0,1,0,31.158123,0,1 @ F,0,0,1,0,31.158123,0,1 @ F,0,0,1,0,31.158123,0,1 @ F,0,0,1,0,31.158123,0,1 @ F,0,0,1,0,31.158123,0,1 @ F,0,0,1,0,31.158123,0,1 @ F,0,0,1,0,31.158123,0,1 @ F,0,0,1,0,31.158123,0,1 @ F,0,0,1,0,31.158123,0,1 @ F,0,0,1,0,31.158123,0,1 @ F,0,0,1,0,31.158123,0,1 @ F,0,0,1,0,31.158123,0,1 @ F,0,0,1,0,31.158123,0,1 @ F,0,0,1,0,31.158123,0,1 @ F,0,0,1,0,31.158123,0,1 @ F,0,0,1,0,31.158123,0,1 @ F,0,0,1,0,31.158123,0,1 @ F,0,0,1,0,31.158123,0,1 @ F,0,0,1,0,31.158123,0,1 @ F,0,0,1,0,31.158123,0,1 @ F,0,0,1,0,31.158123,0,1 @ F,0,0,1,0,31.158123,0,1 @ F,0,0,1,0,31.158123,0,1 @ F,0,0,1,0,31.158123,0,1 | F,0,0,1,0,31.158123,0,1 @ F,0,0,1,0,31.158123,0,1 @ F,0,0,1,0,31.158123,0,1 @ F,0,0,1,0,31.158123,0,1 @ F,0,0,1,0,31.158123,0,1 @ F,0,0,1,0,31.158123,0,1 @ F,0,0,1,0,31.158123,0,1 @ F,0,0,1,0,31.158123,0,1 @ F,0,0,1,0,31.158123,0,1 @ F,0,0,1,0,31.158123,0,1 @ F,0,0,1,0,31.158123,0,1 @ F,0,0,1,0,31.158123,0,1 @ F,0,0,1,0,31.158123,0,1 @ F,0,0,1,0,31.158123,0,1 @ F,0,0,1,0,31.158123,0,1 @ F,0,0,1,0,31.158123,0,1 @ F,0,0,1,0,31.158123,0,1 @ F,0,0,1,0,31.158123,0,1 @ F,0,0,1,0,31.158123,0,1 @ F,0,0,1,0,31.158123,0,1 @ F,0,0,1,0,31.158123,0,1 @ F,0,0,1,0,31.158123,0,1 @ F,0,0,1,0,31.158123,0,1 @ F,0,0,1,0,31.158123,0,1 @ F,0,0,1,0,31.158123,0,1 | F,0,0,1,0,31.158123,0,1 @ F,0,0,1,0,31.158123,0,1 @ F,0,0,1,0,31.158123,0,1 | F,0,0,1,0,31.158123,0,1 @ F,0,0,1,0,31.158123,0,1 @ F,0,0,1,0,31.158123,0,1 @ F,0,0,1,0,31.158123,0,1 @ F,0,0,1,0,31.158123,0,1 @ F,0,0,1,0,31.158123,0,1 @ F,0,0,1,0,31.158123,0,1 @ F,0,0,1,0,31.158123,0,1 @ F,0,0,1,0,31.158123,0,1 @ F,0,0,1,0,31.158123,0,1 @ F,0,0,1,0,31.158123,0,1 @ F,0,0,1,0,31.158123,0,1 @ F,0,0,1,0,31.158123,0,1 @ F,0,0,1,0,31.158123,0,1 @ F,0,0,1,0,31.158123,0,1 @ F,0,0,1,0,31.158123,0,1 @ F,0,0,1,0,31.158123,0,1 @ F,0,0,1,0,31.158123,0,1 @ F,0,0,1,0,31.158123,0,1 @ F,0,0,1,0,31.158123,0,1 @ F,0,0,1,0,31.158123,0,1 @ F,0,0,1,0,31.158123,0,1 @ F,0,0,1,0,31.158123,0,1 @ F,0,0,1,0,31.158123,0,1 @ F,0,0,1,0,31.158123,0,1 @ F,0,0,1,0,31.158123,0,1 @ F,0,0,1,0,31.158123,0,1 @ F,0,0,1,0,31.158123,0,1 @ F,0,0,1,0,31.158123,0,1 @ F,0,0,1,0,31.158123,0,1 @ F,0,0,1,0,31.158123,0,1 @ F,0,0,1,0,31.158123,0,1 @ F,0,0,1,0,31.158123,0,1 @ F,0,0,1,0,31.158123,0,1 @ F,0,0,1,0,31.158123,0,1 | F,0,0,1,0,31.158123,0,1 @ F,0,0,1,0,31.158123,0,1 @ F,0,0,1,0,31.158123,0,1 @ F,0,0,1,0,31.158123,0,1 @ F,0,0,1,0,31.158123,0,1 @ F,0,0,1,0,31.158123,0,1 @ F,0,0,1,0,31.158123,0,1 @ F,0,0,1,0,31.158123,0,1 @ F,0,0,1,0,31.158123,0,1 @ F,0,0,1,0,31.158123,0,1 @ F,0,0,1,0,31.158123,0,1 @ F,0,0,1,0,31.158123,0,1 @ F,0,0,1,0,31.158123,0,1 @ F,0,0,1,0,31.158123,0,1 @ F,0,0,1,0,31.158123,0,1 @ F,0,0,1,0,31.158123,0,1 @ F,0,0,1,0,31.158123,0,1 @ F,0,0,1,0,31.158123,0,1 @ F,0,0,1,0,31.158123,0,1 @ F,0,0,1,0,31.158123,0,1 @ F,0,0,1,0,31.158123,0,1 | F,0,0,1,0,31.158123,0,1 @ F,0,0,1,0,31.158123,0,1 @ F,0,0,1,0,31.158123,0,1 @ F,0,0,1,0,31.158123,0,1 @ F,0,0,1,0,31.158123,0,1 @ F,0,0,1,0,31.158123,0,1 @ F,0,0,1,0,31.158123,0,1 @ F,0,0,1,0,31.158123,0,1 @ F,0,0,1,0,31.158123,0,1 @ F,0,0,1,0,31.158123,0,1 @ F,0,0,1,0,31.158123,0,1 | F,0,0,1,0,31.158123,0,1 @ F,0,0,1,0,31.158123,0,1 @ F,0,0,1,0,31.158123,0,1 @ F,0,0,1,0,31.158123,0,1 @ F,0,0,1,0,31.158123,0,1 @ F,0,0,1,0,31.158123,0,1 @ F,0,0,1,0,31.158123,0,1 @ F,0,0,1,0,31.158123,0,1 @ F,0,0,1,0,31.158123,0,1 @ F,0,0,1,0,31.158123,0,1 @ F,0,0,1,0,31.158123,0,1 @ F,0,0,1,0,31.158123,0,1 @ F,0,0,1,0,31.158123,0,1 @ F,0,0,1,0,31.158123,0,1 @ F,0,0,1,0,31.158123,0,1 @ F,0,0,1,0,31.158123,0,1 @ F,0,0,1,0,31.158123,0,1 @ F,0,0,1,0,31.158123,0,1 @ F,0,0,1,0,31.158123,0,1 @ F,0,0,1,0,31.158123,0,1 @ F,0,0,1,0,31.158123,0,1 @ F,0,0,1,0,31.158123,0,1 @ F,0,0,1,0,31.158123,0,1 @ F,0,0,1,0,31.158123,0,1 @ F,0,0,1,0,31.158123,0,1 @ F,0,0,1,0,31.158123,0,1 @ F,0,0,1,0,31.158123,0,1 @ F,0,0,1,0,31.158123,0,1 @ F,0,0,1,0,31.158123,0,1 @ F,0,0,1,0,31.158123,0,1 @ F,0,0,1,0,31.158123,0,1 @ F,0,0,1,0,31.158123,0,1 @ F,0,0,1,0,31.158123,0,1 @ F,0,0,1,0,31.158123,0,1 @ F,0,0,1,0,31.158123,0,1 @ F,0,0,1,0,31.158123,0,1 @ F,0,0,1,0,31.158123,0,1 @ F,0,0,1,0,31.158123,0,1 @ F,0,0,1,0,31.158123,0,1 @ F,0,0,1,0,31.158123,0,1 @ F,0,0,1,0,31.158123,0,1 @ F,0,0,1,0,31.158123,0,1 @ F,0,0,1,0,31.158123,0,1 | F,0,0,1,0,31.158123,0,1 @ F,0,0,1,0,31.158123,0,1 @ F,0,0,1,0,31.158123,0,1 @ F,0,0,1,0,31.158123,0,1 @ F,0,0,1,0,31.158123,0,1 @ F,0,0,1,0,31.158123,0,1 @ F,0,0,1,0,31.158123,0,1 @ F,0,0,1,0,31.158123,0,1 @ F,0,0,1,0,31.158123,0,1 @ F,0,0,1,0,31.158123,0,1 @ F,0,0,1,0,31.158123,0,1 @ F,0,0,1,0,31.158123,0,1 @ F,0,0,1,0,31.158123,0,1 @ F,0,0,1,0,31.158123,0,1 @ F,0,0,1,0,31.158123,0,1 @ F,0,0,1,0,31.158123,0,1 @ F,0,0,1,0,31.158123,0,1 @ F,0,0,1,0,31.158123,0,1 @ F,0,0,1,0,31.158123,0,1 @ F,0,0,1,0,31.158123,0,1 @ F,0,0,1,0,31.158123,0,1 @ F,0,0,1,0,31.158123,0,1 @ F,0,0,1,0,31.158123,0,1 @ F,0,0,1,0,31.158123,0,1 @ F,0,0,1,0,31.158123,0,1 @ F,0,0,1,0,31.158123,0,1 @ F,0,0,1,0,31.158123,0,1 @ F,0,0,1,0,31.158123,0,1 @ F,0,0,1,0,31.158123,0,1 @ F,0,0,1,0,31.158123,0,1 @ F,0,0,1,0,31.158123,0,1 @ F,0,0,1,0,31.158123,0,1 @ F,0,0,1,0,31.158123,0,1 @ F,0,0,1,0,31.158123,0,1 @ F,0,0,1,0,31.158123,0,1 @ F,0,0,1,0,31.158123,0,1 | F,0,0,1,0,31.158123,0,1 @ F,0,0,1,0,31.158123,0,1 @ F,0,0,1,0,31.158123,0,1 @ F,0,0,1,0,31.158123,0,1 @ F,0,0,1,0,31.158123,0,1 @ F,0,0,1,0,31.158123,0,1 @ F,0,0,1,0,31.158123,0,1 @ F,0,0,1,0,31.158123,0,1 @ F,0,0,1,0,31.158123,0,1"
       radius="107"
       unit="px"
       method="auto"
       mode="F"
       chamfer_steps="1"
       flexible="false"
       use_knot_distance="true"
       apply_no_radius="true"
       apply_with_radius="true"
       only_selected="false"
       hide_knots="false" /></defs><g
     inkscape:label="Layer 1"
     inkscape:groupmode="layer"
     id="layer1"
     transform="translate(-17.723327,-81.097652)"><path
       d="m 116.92398,100.14684 c 0.1761,0.50588 0.3522,1.01175 0.5283,1.51763 -0.67306,0 -1.09516,0.0228 -1.26627,0.0685 -0.15971,0.0456 -0.30231,0.14833 -0.4278,0.30806 -0.11407,0.14833 -0.17111,0.31947 -0.17111,0.51343 0,0.17115 0.0742,0.54196 0.22245,1.11244 1.06663,1.49609 2.13327,2.99217 3.1999,4.48826 1.61481,-5.10281 1.17441,-3.71113 2.78922,-8.81394 -0.15645,0.617954 -0.93871,3.70773 -1.09516,4.32568 -0.0342,-0.0799 -0.0798,-0.22248 -0.13689,-0.42786 -0.1483,-0.55907 -0.37076,-0.9527 -0.66736,-1.18089 -0.2966,-0.23961 -0.7244,-0.37082 -1.28338,-0.39364 0,0 1.0566,-2.30533 1.0566,-2.30533 2.97319,-0.332585 5.94637,-0.66517 8.91956,-0.997755 0,1.101028 0,2.202055 0,3.303085 -0.26809,0 -0.53617,0 -0.80426,0 -0.5818,0 -0.95825,0.0685 -1.12937,0.20538 -0.23956,0.19396 -0.35934,0.43927 -0.35934,0.73592 0,0.21678 0.0856,0.65605 0.25667,1.31781 0,0 2.82344,3.10199 2.82344,3.10199 0.96967,-1.034 1.93934,-2.06799 2.90901,-3.10199 0.21674,-0.79867 0.32512,-1.27217 0.32512,-1.4205 0,-0.27383 -0.10268,-0.4792 -0.30802,-0.61612 -0.20533,-0.14832 -0.5932,-0.22249 -1.16359,-0.22249 -0.2909,0 -0.5818,0 -0.87271,0 0.70441,-1.34609 1.40882,-2.692182 2.11322,-4.038273 2.90568,-0.157541 5.81136,-0.315081 8.71704,-0.472621 -0.58701,1.503631 -1.17401,3.007264 -1.76102,4.510894 -0.65025,0 -1.11796,0.0685 -1.40316,0.20538 -0.27378,0.1255 -0.50765,0.32517 -0.70159,0.599 -0.18252,0.27383 -0.40497,0.85002 -0.66735,1.72856 -1.70382,3.27081 -3.40763,6.54161 -5.11144,9.81242 0,0 -5.16775,-0.63016 -5.16775,-0.63016 -0.98274,-2.87107 -1.96547,-5.74214 -2.94821,-8.61321 7.01152,-15.125879 -10.51728,22.68882 -3.50576,7.56294 -1.61493,-0.21005 -3.22986,-0.42011 -4.84479,-0.63016 -1.19262,-1.97923 -2.38524,-3.95846 -3.57786,-5.93769 -0.44868,-0.49665 -1.55082,0.0281 -4.46467,0.87863 -0.63482,-4.16972 6.77319,-5.44337 9.97833,-6.49338 z m 32.66421,-3.541592 c 1.78532,0 3.57065,0 5.35598,0 1.50944,2.586482 5.66039,9.699312 7.16983,12.285792 0.38787,0.98123 0.73011,1.58594 1.02671,1.81413 0.30801,0.22819 0.867,0.33659 1.67695,0.32518 0.0415,0.89061 0.083,1.78123 0.12452,2.67184 -3.8061,0.21042 -7.61219,0.42083 -11.41829,0.63125 0,-1.10103 0,-2.20206 0,-3.30309 0.22816,-0.006 0.45631,-0.0114 0.68447,-0.0171 0.62743,0 1.06664,-0.0799 1.31762,-0.2396 0.25097,-0.17114 0.37645,-0.37651 0.37645,-0.61612 0,-0.20537 -0.10838,-0.62753 -0.32512,-1.26647 -0.23386,-0.72451 -0.46772,-1.44902 -0.70158,-2.17353 -2.42417,0 -4.84834,0 -7.27251,0 0,0 -0.88981,2.41313 -0.88981,2.41313 -0.18252,0.51344 -0.27379,0.85003 -0.27379,1.00976 0,0.18255 0.0627,0.34799 0.18823,0.49632 0.13689,0.14832 0.35364,0.25671 0.65025,0.32517 0.19393,0.0457 0.73009,0.0685 1.60851,0.0685 0,1.10103 0,2.20206 0,3.30309 -3.08012,0 -6.16025,0 -9.24037,0 0,-1.10103 0,-2.20206 0,-3.30309 0.59321,0 1.02671,-0.0513 1.3005,-0.15403 0.27379,-0.10269 0.49624,-0.25672 0.66736,-0.46209 0.18253,-0.20537 0.38217,-0.5876 0.59891,-1.14667 2.45839,-4.22079 4.91678,-8.44158 7.37518,-12.662372 z m -0.73581,6.706482 c 1.5914,0 3.18279,0 4.77418,0 -0.77573,-1.21502 -1.55146,-2.43004 -2.32719,-3.645057 -0.81566,1.215017 -1.63133,2.430037 -2.44699,3.645057 z m 17.08518,-7.385772 c 0,0 9.70237,-0.556989 9.70237,-0.556989 2.41592,3.00699 4.83184,6.013981 7.24776,9.020971 0,-1.37755 0,-2.75511 0,-4.13266 0,-0.730216 -0.0399,-1.186601 -0.11978,-1.369156 -0.11408,-0.273831 -0.26808,-0.46209 -0.46202,-0.564777 -0.19393,-0.114096 -0.57039,-0.171144 -1.12937,-0.171144 -0.38787,0 -0.77574,0 -1.1636,0 0,-1.026765 0,-2.05353 0,-3.080294 3.28546,-0.02476 6.57091,-0.04951 9.85637,-0.07427 0,1.05152 0,2.10304 0,3.15456 -0.36505,0 -0.7301,0 -1.09515,0 -0.54758,0 -0.94115,0.06275 -1.18071,0.188259 -0.22815,0.125506 -0.38787,0.29665 -0.47914,0.513433 -0.0913,0.216783 -0.15827,0.684608 -0.13688,1.403389 0.12452,4.0608 0.24904,8.12159 0.37357,12.18239 -1.92758,0.11141 -3.85517,0.22282 -5.78275,0.33423 -2.7886,-3.88125 -5.5772,-7.7625 -8.36581,-11.64375 0,2.63832 0,5.27663 0,7.91495 0,0.7074 0.0399,1.15808 0.11979,1.35204 0.0913,0.19397 0.24527,0.348 0.46201,0.46209 0.22816,0.1141 0.61603,0.17115 1.16361,0.17115 0.38216,0 0.76433,0 1.14649,0 0.16603,0.65544 0.33206,1.31088 0.49809,1.96632 -3.05352,0.12377 -6.10705,0.24755 -9.16058,0.37132 -0.41508,-0.77921 -0.83015,-1.55843 -1.24523,-2.33764 0.34224,0 0.68447,0 1.0267,0 0.5704,0 0.95827,-0.0456 1.16361,-0.13692 0.21675,-0.10269 0.38786,-0.27383 0.51335,-0.51343 0.12549,-0.2396 0.18823,-0.599 0.18823,-1.07821 0,-3.10042 0,-6.20084 0,-9.30126 0,-0.524843 -0.0571,-0.907066 -0.17111,-1.146669 -0.11408,-0.251012 -0.26809,-0.427861 -0.46202,-0.530548 -0.19394,-0.114096 -0.51906,-0.171144 -0.97538,-0.171144 -0.42779,0 -0.85558,0 -1.28338,0 z m 26.13916,-1.369534 c 4.16956,-0.140036 8.33913,-0.280072 12.5087,-0.420107 2.8227,-0.0948 5.09931,0.870788 6.77626,1.772149 10.95914,5.890534 3.15649,14.732804 -4.44906,15.982524 -1.58569,0.26242 -2.85767,0.39363 -3.81593,0.39363 -3.67332,0 -7.34665,0 -11.01997,0 0,-1.10103 0,-2.20206 0,-3.30309 0.27378,0 0.54757,0 0.82136,0 0.69588,0 1.15219,-0.0571 1.36894,-0.17115 0.21675,-0.11409 0.39357,-0.30806 0.53046,-0.58189 0.0913,-0.21678 0.1369,-0.69028 0.1369,-1.4205 0,-2.29825 0,-4.59649 0,-6.894739 0,-0.73022 -0.0513,-1.198015 -0.15401,-1.403388 -0.0913,-0.216783 -0.25097,-0.376518 -0.47912,-0.479205 -0.21676,-0.114096 -0.68447,-0.171144 -1.40317,-0.171144 -0.27379,0 -0.54758,0 -0.82136,0 0,-1.10103 0,-2.20206 0,-3.30309 z m 8.727,3.833638 c 0,2.897248 0,5.794508 0,8.691758 0,0.50203 0.0285,0.81009 0.0856,0.92419 0.0913,0.17114 0.22245,0.29094 0.39356,0.3594 0.18253,0.0571 0.61033,0.0856 1.28339,0.0856 0.75795,0 10.53822,-0.1237 6.99872,-6.55246 -0.60462,-1.28928 -1.35754,-2.19635 -2.25876,-2.721193 -0.90122,-0.524843 -2.19031,-0.787265 -3.86726,-0.787265 -0.87842,-10e-6 -1.75683,-2e-5 -2.63524,-3e-5 z m 18.63472,-5.004394 c 6.66871,-0.498878 13.33743,-0.997756 20.00614,-1.496633 0.87758,3.014702 1.75515,6.029404 2.63273,9.044105 -1.03241,0.37081 -2.06482,0.74163 -3.09723,1.11244 -0.52476,-1.23224 -1.14079,-2.224877 -1.84808,-2.977913 -0.69588,-0.753036 -1.4716,-1.249355 -2.3272,-1.488958 -0.84418,-0.251012 -1.83096,-0.376518 -2.96034,-0.376518 -1.21493,0 -2.42986,0 -3.6448,0 0,1.985276 0,3.970549 0,5.955829 0.39928,0 0.79855,0 1.19783,0 0.90122,0 1.50583,-0.0627 1.81384,-0.18826 0.31942,-0.13691 0.54758,-0.34229 0.68448,-0.61612 0.13688,-0.28524 0.20533,-0.84431 0.20533,-1.67722 0,-0.30235 0,-0.60471 0,-0.907061 1.0153,0 2.0306,0 3.0459,0 0,2.390211 0,4.780421 0,7.170631 -1.0153,0 -2.0306,0 -3.0459,0 0,-0.34229 0,-0.68457 0,-1.02686 0,-0.69599 -0.0856,-1.20372 -0.25668,-1.52319 -0.1597,-0.31947 -0.38216,-0.53625 -0.66735,-0.65035 -0.2852,-0.11409 -0.91833,-0.17114 -1.8994,-0.17114 -0.35935,0 -0.7187,0 -1.07805,0 0,1.24016 0,2.48033 0,3.72049 0,0.58189 0.0285,0.93559 0.0856,1.0611 0.0571,0.12551 0.16544,0.22249 0.32512,0.29094 0.17112,0.0685 0.53047,0.10269 1.07804,0.10269 9.58519,0.0808 9.73856,-2.16151 10.38685,-4.35373 1.04382,0.3594 2.08764,0.71881 3.13145,1.07821 -1.21992,2.82484 -2.43983,5.64967 -3.65975,8.47451 -6.70283,-0.45512 -13.40566,-0.91023 -20.10849,-1.36535 0,-1.10103 0,-2.20206 0,-3.30309 0.19963,0 0.39927,0 0.5989,0 0.79855,0 1.33473,-0.0571 1.60851,-0.17115 0.27379,-0.11409 0.46773,-0.31376 0.5818,-0.599 0.0571,-0.17115 0.0856,-0.65606 0.0856,-1.45473 0,-2.77465 0,-5.54931 0,-8.323962 0,-0.707397 -0.0513,-1.169488 -0.15401,-1.386271 -0.0913,-0.216783 -0.23956,-0.376518 -0.4449,-0.479205 -0.20534,-0.114096 -0.61032,-0.171144 -1.21494,-0.171144 -0.35364,0 -0.70728,0 -1.06092,0 -2e-5,-1.10103 -4e-5,-2.20206 -6e-5,-3.30309 z m 25.29594,-1.850046 c 6.86623,-0.332808 16.61247,-2.226157 20.73472,0.309426 0.91263,0.581891 1.61992,1.317813 2.12187,2.207765 0.50194,0.889951 0.75291,1.893999 0.75291,3.012143 0,1.814132 -0.65025,3.285974 -1.95074,4.415524 -1.28909,1.11815 -2.81774,1.84836 -4.58595,2.19065 12.2777,14.29058 -7.36662,-8.574344 4.91108,5.71623 0.0684,0.0856 0.13689,0.17115 0.20534,0.25672 0.31942,0.38793 0.61032,0.67887 0.8727,0.87284 0.26238,0.18255 0.52476,0.31376 0.78714,0.39363 0.26238,0.0799 0.62744,0.1198 1.09515,0.1198 0,0 1.02671,0 1.02671,0 0,1.10103 0,2.20206 0,3.30309 -2.54965,0 -5.0993,0 -7.64896,0 -1.02214,-1.37144 -6.64393,-8.91435 -7.66608,-10.28579 -0.66165,0 -1.32331,0 -1.98497,0 0,1.58594 0,3.17188 0,4.75782 0,0.82149 0.0456,1.34634 0.1369,1.57453 0.0913,0.21678 0.23387,0.38222 0.4278,0.49632 0.20533,0.10269 0.61032,0.15403 1.21494,0.15403 0,0 1.09514,0 1.09514,0 0,1.10103 0,2.20206 0,3.30309 0,0 -11.67022,0 -11.67022,0 0,-1.10103 0,-2.20206 0,-3.30309 0.35364,0 0.70729,0 1.06093,0 0.55898,0 0.95256,-0.0571 1.18071,-0.17115 0.23956,-0.1255 0.41639,-0.30805 0.53047,-0.54766 0.0571,-0.13691 0.0856,-0.56477 0.0856,-1.28358 0,-4.47828 0,-8.95656 0,-13.434847 0,-0.524843 -0.0456,-0.895656 -0.13689,-1.112439 -0.0799,-0.228193 -0.21675,-0.376518 -0.41068,-0.444976 -0.27379,-0.125506 -0.58751,-0.188259 -0.94115,-0.188259 -0.15971,0.0057 -0.31942,0.01141 -0.47913,0.01711 -0.2966,0 -0.5932,0 -0.88981,0 0.0415,-0.776309 0.083,-1.552618 0.12449,-2.328927 z m 8.67092,2.842365 c 0,2.059438 0,4.118876 0,6.178313 0,0 3.54215,0 3.54215,0 1.39175,0 2.42987,-0.1255 3.11434,-0.37651 0.69588,-0.262419 1.21493,-0.633238 1.55717,-1.112443 0.35364,-0.479205 0.53046,-1.061096 0.53046,-1.745674 0,-0.62753 -0.16541,-1.163783 -0.49624,-1.608759 -0.31942,-0.456385 -0.78144,-0.792969 -1.38605,-1.009752 -0.59321,-0.216783 -1.56858,-0.325175 -2.92611,-0.325175 -1.31191,0 -2.62381,0 -3.93572,0 z m 29.44937,-3.91921 c 3.50221,0 7.00441,0 10.50662,0 0,1.10103 0,2.20206 0,3.30309 -0.67306,0 -1.09515,0.02282 -1.26627,0.06846 -0.1597,0.04564 -0.3023,0.148327 -0.42779,0.30806 -0.11408,0.148325 -0.17113,0.31947 -0.17113,0.513433 0,0.171145 0.0742,0.541958 0.22246,1.11244 0.0696,0.269366 3.13033,12.12149 3.1999,12.39086 0.92974,-2.93798 1.85948,-5.87596 2.78922,-8.81394 -0.36505,-1.192307 -0.7301,-2.384614 -1.09515,-3.57692 -0.0343,-0.07987 -0.0799,-0.222488 -0.1369,-0.427862 -0.1483,-0.559072 -0.37075,-0.952704 -0.66735,-1.180897 -0.29661,-0.239602 -0.72441,-0.370813 -1.28339,-0.393632 0,-1.10103 0,-2.20206 0,-3.30309 0,0 9.85165,0.297061 9.85165,0.297061 0.0415,1.002009 0.083,2.004019 0.12452,3.006029 -0.26809,0 -0.53617,0 -0.80426,0 -0.5818,0 -0.95826,0.06846 -1.12937,0.205373 -0.23957,0.193964 -0.35935,0.439271 -0.35935,0.735922 0,0.216783 0.0856,0.656054 0.25668,1.317813 0.94114,3.668198 1.88229,7.336393 2.82343,11.004593 0.96967,-3.47307 1.93934,-6.94614 2.90901,-10.419215 0.21675,-0.798675 0.32513,-1.272175 0.32513,-1.4205 0,-0.273831 -0.10268,-0.479205 -0.30803,-0.61612 -0.20533,-0.148325 -0.5932,-0.222488 -1.16359,-0.222488 -0.2909,0 -0.5818,0 -0.8727,0 0,-1.10103 0,-2.20206 0,-3.30309 0,0 8.32211,0.668387 8.32211,0.668387 0.24904,0.878234 0.49809,1.756468 0.74713,2.634703 -0.65025,0 -1.11797,0.06846 -1.40317,0.205373 -0.27379,0.125506 -0.50765,0.325175 -0.70158,0.599006 -0.18252,0.273831 -0.40498,0.850018 -0.66736,1.72856 1.82845,-6.190265 -6.74241,22.826594 -4.91396,16.636334 -1.88862,0.12378 -3.77724,0.24755 -5.66586,0.37133 -0.88252,-3.04046 -1.76505,-6.08093 -2.64758,-9.12139 -0.86796,3.05284 -1.73592,6.10568 -2.60387,9.15852 -1.91556,0.13615 -3.83112,0.27231 -5.74667,0.40846 -1.74216,-5.97565 -3.59672,-12.33682 -5.33888,-18.312463 -0.22815,-0.798675 -0.42779,-1.312108 -0.59891,-1.540301 -0.17111,-0.239603 -0.41068,-0.422157 -0.71869,-0.547663 -0.2966,-0.125506 -0.75862,-0.182554 -1.38605,-0.171144 0,1.10103 0,-4.404123 0,-3.303092 z m 33.86418,1.463445 c 0,0 11.13792,1.373906 11.13792,1.373906 0.16603,0.643061 0.33206,1.286122 0.49809,1.929184 -0.35365,0 -0.70729,0 -1.06094,0 -0.61602,0 -1.02671,0.05705 -1.23204,0.171144 -0.19394,0.102687 -0.34224,0.273831 -0.44491,0.513434 -0.0913,0.228193 -0.13689,0.673168 -0.13689,1.334927 0,3.330923 0,6.661853 0,9.992783 0,0.71881 0.0399,1.1809 0.11978,1.38627 0.0799,0.20537 0.21675,0.3537 0.41068,0.44498 0.23957,0.13691 0.59891,0.20537 1.07805,0.20537 0.42209,0 0.84418,0 1.26627,0 0.008,-0.0711 -0.25741,2.18594 -0.24904,2.11485 0,0 -11.38697,1.18824 -11.38697,1.18824 0,-1.10103 0,-2.20206 0,-3.30309 0.31372,0 0.62743,0 0.94114,0 0.67307,0 1.11228,-0.0456 1.31762,-0.13692 0.20533,-0.10269 0.35364,-0.25672 0.4449,-0.46209 0.10267,-0.21678 0.154,-0.63894 0.154,-1.26647 0,-3.34804 0,-6.69608 0,-10.044122 0,-0.741626 -0.0513,-1.226535 -0.154,-1.454728 -0.0913,-0.239603 -0.25097,-0.422157 -0.47913,-0.547663 -0.1597,-0.09128 -0.54757,-0.136915 -1.16361,-0.136915 0,0 -1.06092,0 -1.06092,0 0,0.220206 0,-3.523296 0,-3.30309 z m 28.29704,4.462443 c 0.0747,0.16822 1.04599,2.355085 1.1207,2.523306 -2.8129,2.733119 -5.6258,5.466239 -8.43871,8.199359 5.82141,0.10352 9.70307,-5.04152 10.91731,-6.17832 0,0 3.13146,1.0611 3.13146,1.0611 -3.25227,4.9447 -7.88101,6.39272 -21.35549,8.83106 0,-1.10103 0,-2.20206 0,-3.30309 3.24509,-3.26062 6.49017,-6.52124 9.73526,-9.781854 -0.66165,0 -1.32331,0 -1.98497,0 -1.34612,0 -2.42987,0.159735 -3.25123,0.479205 -0.82137,0.319469 -1.53436,0.792969 -2.13897,1.420499 -0.60462,0.62753 1.47294,-0.103481 0.34356,1.90462 0,0 -3.01166,-1.33493 -3.01166,-1.33493 -0.25912,2.36484 0.94225,-8.599413 0.68313,-6.234574 z"
       id="text2"
       style="font-weight:600;font-size:35.0504px;font-family:'Bookman Old Style';-inkscape-font-specification:'Bookman Old Style, Semi-Bold';opacity:0.656425;fill:#ff6f03;fill-opacity:1;stroke-width:0.182554"
       transform="matrix(0.53904506,0,0,1.807948,-36.108235,-78.935246)"
       aria-label="WANDER WIZ"
       inkscape:path-effect="#path-effect5"
       inkscape:original-d="m 116.99413,100.23739 0.52839,1.51763 c -0.67317,0 -1.09533,0.0228 -1.26647,0.0685 -0.15974,0.0456 -0.30236,0.14833 -0.42787,0.30806 -0.11409,0.14833 -0.17114,0.31947 -0.17114,0.51343 0,0.17115 0.0742,0.54196 0.22249,1.11244 l 3.2004,4.48826 2.78966,-8.813941 -1.09533,4.325681 c -0.0342,-0.0799 -0.0798,-0.22248 -0.13691,-0.42786 -0.14833,-0.55907 -0.37082,-0.9527 -0.66747,-1.18089 -0.29665,-0.23961 -0.72451,-0.37082 -1.28358,-0.39364 l 1.05677,-2.305331 8.92095,-0.997755 v 3.303086 h -0.80438 c -0.58189,0 -0.9584,0.0685 -1.12955,0.20538 -0.2396,0.19396 -0.3594,0.43927 -0.3594,0.73592 0,0.21678 0.0856,0.65605 0.25671,1.31781 l 2.82389,3.10199 2.90946,-3.10199 c 0.21678,-0.79867 0.32517,-1.27217 0.32517,-1.4205 0,-0.27383 -0.10269,-0.4792 -0.30806,-0.61612 -0.20537,-0.14832 -0.5933,-0.22249 -1.16378,-0.22249 h -0.87284 l 2.11355,-4.038274 8.7184,-0.472621 -1.76129,4.510895 c -0.65035,0 -1.11814,0.0685 -1.40338,0.20538 -0.27383,0.1255 -0.50773,0.32517 -0.7017,0.599 -0.18255,0.27383 -0.40504,0.85002 -0.66746,1.72856 l -5.11224,9.81242 -5.16856,-0.63016 -2.94867,-8.61321 -3.50631,7.56294 -4.84555,-0.63016 -3.57842,-5.93769 c -0.44875,-0.49665 -1.55106,0.0281 -4.46537,0.87863 -0.63492,-4.16972 6.77425,-5.44337 9.97989,-6.49338 z m 32.66933,-3.541593 h 5.35682 l 7.17096,12.285793 c 0.38793,0.98123 0.73022,1.58594 1.02687,1.81413 0.30806,0.22819 0.86713,0.33659 1.67721,0.32518 l 0.12454,2.67184 -11.42008,0.63125 v -3.30309 l 0.68458,-0.0171 c 0.62753,0 1.06681,-0.0799 1.31782,-0.2396 0.25101,-0.17114 0.37651,-0.37651 0.37651,-0.61612 0,-0.20537 -0.10839,-0.62753 -0.32517,-1.26647 l -0.70169,-2.17353 h -7.27365 l -0.88995,2.41313 c -0.18255,0.51344 -0.27383,0.85003 -0.27383,1.00976 0,0.18255 0.0627,0.34799 0.18826,0.49632 0.13691,0.14832 0.3537,0.25671 0.65035,0.32517 0.19396,0.0457 0.73021,0.0685 1.60876,0.0685 v 3.30309 h -9.24181 v -3.30309 c 0.5933,0 1.02687,-0.0513 1.3007,-0.15403 0.27383,-0.10269 0.49632,-0.25672 0.66746,-0.46209 0.18256,-0.20537 0.38223,-0.5876 0.59901,-1.14667 z m -0.73592,6.706483 h 4.77493 l -2.32756,-3.645058 z m 17.08786,-7.385773 9.70389,-0.556989 7.24889,9.020972 v -4.13266 c 0,-0.730217 -0.0399,-1.186602 -0.1198,-1.369157 -0.11409,-0.273831 -0.26812,-0.46209 -0.46209,-0.564777 -0.19396,-0.114096 -0.57048,-0.171144 -1.12955,-0.171144 h -1.16378 v -3.080294 l 9.85792,-0.07427 v 3.15456 h -1.09532 c -0.54767,0 -0.9413,0.06275 -1.1809,0.188259 -0.22819,0.125506 -0.38793,0.29665 -0.47921,0.513433 -0.0913,0.216783 -0.1583,0.684608 -0.13691,1.40339 l 0.37363,12.18239 -5.78365,0.33423 -8.36712,-11.64375 v 7.91495 c 0,0.7074 0.0399,1.15808 0.1198,1.35204 0.0913,0.19397 0.24531,0.348 0.46209,0.46209 0.22819,0.1141 0.61612,0.17115 1.16379,0.17115 h 1.14667 l 0.49817,1.96632 -9.16202,0.37132 -1.24542,-2.33764 h 1.02686 c 0.57049,0 0.95842,-0.0456 1.16379,-0.13692 0.21678,-0.10269 0.38792,-0.27383 0.51343,-0.51343 0.12551,-0.2396 0.18826,-0.599 0.18826,-1.07821 v -9.30126 c 0,-0.524844 -0.0571,-0.907067 -0.17114,-1.14667 -0.1141,-0.251012 -0.26813,-0.427861 -0.46209,-0.530548 -0.19397,-0.114096 -0.51914,-0.171144 -0.97553,-0.171144 h -1.28358 z m 26.14325,-1.369534 12.51066,-0.420107 c 2.82315,-0.0948 5.10011,0.870788 6.77733,1.772149 10.96085,5.890535 3.15698,14.732805 -4.44976,15.982525 -1.58594,0.26242 -2.85812,0.39363 -3.81653,0.39363 h -11.0217 v -3.30309 h 0.82149 c 0.69599,0 1.15237,-0.0571 1.36916,-0.17115 0.21678,-0.11409 0.39363,-0.30806 0.53054,-0.58189 0.0913,-0.21678 0.13692,-0.69028 0.13692,-1.4205 v -6.89474 c 0,-0.73022 -0.0513,-1.198015 -0.15403,-1.403388 -0.0913,-0.216783 -0.25101,-0.376518 -0.4792,-0.479205 -0.21679,-0.114096 -0.68458,-0.171144 -1.40339,-0.171144 h -0.82149 z m 8.72837,3.833638 v 8.691759 c 0,0.50203 0.0285,0.81009 0.0856,0.92419 0.0913,0.17114 0.22249,0.29094 0.39363,0.3594 0.18255,0.0571 0.61042,0.0856 1.28359,0.0856 0.75807,0 10.53987,-0.1237 6.99981,-6.55246 -0.60471,-1.28928 -1.35775,-2.196351 -2.25911,-2.721194 -0.90136,-0.524843 -2.19065,-0.787265 -3.86787,-0.787265 z m 18.63764,-5.004394 20.00928,-1.496633 2.63314,9.044106 -3.09772,1.11244 c -0.52484,-1.23224 -1.14096,-2.224878 -1.84836,-2.977914 -0.69599,-0.753036 -1.47184,-1.249355 -2.32757,-1.488958 -0.84431,-0.251012 -1.83125,-0.376518 -2.9608,-0.376518 h -3.64537 v 5.95583 h 1.19801 c 0.90136,0 1.50607,-0.0627 1.81413,-0.18826 0.31947,-0.13691 0.54766,-0.34229 0.68458,-0.61612 0.13691,-0.28524 0.20537,-0.84431 0.20537,-1.67722 v -0.907062 h 3.04637 v 7.170632 h -3.04637 v -1.02686 c 0,-0.69599 -0.0856,-1.20372 -0.25672,-1.52319 -0.15973,-0.31947 -0.38222,-0.53625 -0.66746,-0.65035 -0.28524,-0.11409 -0.91847,-0.17114 -1.8997,-0.17114 h -1.07821 v 3.72049 c 0,0.58189 0.0285,0.93559 0.0856,1.0611 0.0571,0.12551 0.16546,0.22249 0.32517,0.29094 0.17115,0.0685 0.53055,0.10269 1.07821,0.10269 9.58669,0.0808 9.74008,-2.16151 10.38848,-4.35373 l 3.13194,1.07821 -3.66033,8.47451 -20.11164,-1.36535 v -3.30309 h 0.599 c 0.79867,0 1.33493,-0.0571 1.60876,-0.17115 0.27383,-0.11409 0.4678,-0.31376 0.58189,-0.599 0.0571,-0.17115 0.0856,-0.65606 0.0856,-1.45473 v -8.323963 c 0,-0.707397 -0.0513,-1.169488 -0.15403,-1.386271 -0.0913,-0.216783 -0.2396,-0.376518 -0.44497,-0.479205 -0.20537,-0.114096 -0.61042,-0.171144 -1.21513,-0.171144 h -1.06109 z m 25.29991,-1.850046 c 6.8673,-0.332808 16.61507,-2.226157 20.73797,0.309426 0.91277,0.581891 1.62017,1.317813 2.1222,2.207765 0.50202,0.889951 0.75303,1.893999 0.75303,3.012143 0,1.814132 -0.65035,3.285975 -1.95105,4.415525 -1.28929,1.11815 -2.81818,1.84836 -4.58667,2.19065 l 4.91185,5.71623 0.20537,0.25672 c 0.31947,0.38793 0.61042,0.67887 0.87284,0.87284 0.26242,0.18255 0.52484,0.31376 0.78726,0.39363 0.26243,0.0799 0.62754,0.1198 1.09533,0.1198 h 1.02687 v 3.30309 h -7.65016 l -7.66728,-10.28579 h -1.98528 v 4.75782 c 0,0.82149 0.0456,1.34634 0.13692,1.57453 0.0913,0.21678 0.2339,0.38222 0.42786,0.49632 0.20537,0.10269 0.61042,0.15403 1.21513,0.15403 h 1.09532 v 3.30309 h -11.67205 v -3.30309 h 1.06109 c 0.55907,0 0.95271,-0.0571 1.1809,-0.17115 0.2396,-0.1255 0.41645,-0.30805 0.53055,-0.54766 0.0571,-0.13691 0.0856,-0.56477 0.0856,-1.28358 V 95.683662 c 0,-0.524843 -0.0456,-0.895656 -0.13692,-1.112439 -0.0799,-0.228193 -0.21678,-0.376518 -0.41074,-0.444976 -0.27383,-0.125506 -0.5876,-0.188259 -0.9413,-0.188259 l -0.4792,0.01711 h -0.88995 z m 8.67228,2.842365 v 6.178314 h 3.5427 c 1.39197,0 2.43025,-0.1255 3.11483,-0.37651 0.69599,-0.26242 1.21512,-0.633239 1.55741,-1.112444 0.3537,-0.479205 0.53055,-1.061096 0.53055,-1.745674 0,-0.62753 -0.16544,-1.163783 -0.49632,-1.608759 -0.31947,-0.456385 -0.78156,-0.792969 -1.38627,-1.009752 -0.5933,-0.216783 -1.56882,-0.325175 -2.92657,-0.325175 z m 29.45398,-3.91921 h 10.50827 v 3.30309 c -0.67317,0 -1.09532,0.02282 -1.26647,0.06846 -0.15973,0.04564 -0.30235,0.148327 -0.42786,0.30806 -0.1141,0.148325 -0.17115,0.31947 -0.17115,0.513433 0,0.171145 0.0742,0.541958 0.22249,1.11244 l 3.2004,12.390861 2.78966,-8.813941 -1.09532,-3.57692 c -0.0343,-0.07987 -0.0799,-0.222488 -0.13692,-0.427862 -0.14833,-0.559072 -0.37081,-0.952704 -0.66746,-1.180897 -0.29665,-0.239602 -0.72452,-0.370813 -1.28359,-0.393632 v -3.30309 l 9.85319,0.297061 0.12454,3.006029 h -0.80438 c -0.58189,0 -0.95841,0.06846 -1.12955,0.205373 -0.23961,0.193964 -0.35941,0.439271 -0.35941,0.735922 0,0.216783 0.0856,0.656054 0.25672,1.317813 l 2.82388,11.004594 2.90946,-10.419216 c 0.21679,-0.798675 0.32518,-1.272175 0.32518,-1.4205 0,-0.273831 -0.10269,-0.479205 -0.30807,-0.61612 -0.20537,-0.148325 -0.5933,-0.222488 -1.16378,-0.222488 h -0.87283 v -3.30309 l 8.32341,0.668387 0.74725,2.634703 c -0.65035,0 -1.11815,0.06846 -1.40339,0.205373 -0.27383,0.125506 -0.50773,0.325175 -0.70169,0.599006 -0.18255,0.273831 -0.40504,0.850018 -0.66747,1.72856 l -4.91473,16.636335 -5.66674,0.37133 -2.648,-9.12139 -2.60428,9.15852 -5.74757,0.40846 -5.33971,-18.312464 c -0.22819,-0.798675 -0.42786,-1.312108 -0.59901,-1.540301 -0.17114,-0.239603 -0.41074,-0.422157 -0.7188,-0.547663 -0.29665,-0.125506 -0.75874,-0.182554 -1.38627,-0.171144 z m 33.86949,1.463445 11.13966,1.373906 0.49817,1.929184 h -1.0611 c -0.61612,0 -1.02687,0.05705 -1.23224,0.171144 -0.19397,0.102687 -0.34229,0.273831 -0.44498,0.513434 -0.0913,0.228193 -0.13691,0.673168 -0.13691,1.334927 v 9.992784 c 0,0.71881 0.0399,1.1809 0.1198,1.38627 0.0799,0.20537 0.21678,0.3537 0.41075,0.44498 0.2396,0.13691 0.599,0.20537 1.07821,0.20537 h 1.26647 l -0.24908,2.11485 -11.38875,1.18824 v -3.30309 h 0.94129 c 0.67317,0 1.11245,-0.0456 1.31782,-0.13692 0.20537,-0.10269 0.3537,-0.25672 0.44497,-0.46209 0.10269,-0.21678 0.15403,-0.63894 0.15403,-1.26647 V 97.455167 c 0,-0.741626 -0.0513,-1.226535 -0.15403,-1.454728 -0.0913,-0.239603 -0.25101,-0.422157 -0.4792,-0.547663 -0.15973,-0.09128 -0.54766,-0.136915 -1.16379,-0.136915 h -1.06109 z m 28.30147,4.462443 1.12088,2.523306 -8.44003,8.19936 c 5.82232,0.10352 9.70459,-5.04152 10.91902,-6.17832 l 3.13195,1.0611 c -3.25278,4.9447 -7.88225,6.39272 -21.35884,8.83106 v -3.30309 l 9.73679,-9.781855 h -1.98528 c -1.34633,0 -2.43025,0.159735 -3.25174,0.479205 -0.8215,0.319469 -1.5346,0.792969 -2.13931,1.420499 -0.60471,0.627531 1.47317,-0.103481 0.34362,1.904621 l -3.01214,-1.33493 0.68324,-6.234575 z"
       sodipodi:nodetypes="ccccsccccccccccscscccscscccccccccccccccccccccccccsccccsccccccsccccccccccsccsccccscsscccsccsccccscsssccscccsscsccsscssccscccsccscsccccccccsccsccsccccscsscsscscccccsscssccsccccsscccccsscccccsccsccccsccssccccccccsccsccsccccccsccccccccccscscccscsccccccccccccccccccccsccssscsccccsccssccsccccccccccssscccc" /><path
       id="path5"
       style="opacity:0.656425;fill:#ff6f03;fill-opacity:1;stroke-width:0.289572"
       d="m 68.370224,132.24182 a 16.568725,14.395997 8.1350247 0 0 -15.126712,12.99845 16.568725,14.395997 8.1350247 0 0 2.12788,8.05436 l -0.0556,0.18698 a 16.568725,14.395997 8.1350247 0 0 9.926482,6.99853 l 2.89605,0.56891 14.57109,2.86266 8.20708,-27.5983 -15.95498,-3.13377 a 16.568725,14.395997 8.1350247 0 0 -4.23316,-0.88053 16.568725,14.395997 8.1350247 0 0 -2.35814,-0.0573 z m 25.36337,4.68602 -7.71747,27.71886 26.284916,6.89099 0.0141,-0.0503 a 20.29638,39.207905 89.262468 0 0 22.48497,3.53672 20.29638,39.207905 89.262468 0 0 39.29517,-20.62173 20.29638,39.207905 89.262468 0 0 -39.11586,-19.97511 20.29638,39.207905 89.262468 0 0 -23.36284,4.20728 c -3.94905,0.83013 -8.0669,0.57201 -11.905286,-0.13947 z m 12.614206,3.30698 1.09453,0.26816 a 20.29638,39.207905 89.262468 0 0 -0.0256,0.0118 z" /><path
       style="opacity:0.656425;fill:#d40000;fill-opacity:0.691824;stroke-width:0.264583"
       d="m 59.883362,235.90823 22.019892,3.08815"
       id="path18"
       inkscape:path-effect="#path-effect18"
       inkscape:original-d="m 59.883362,235.90823 c 7.518987,1.02938 14.769441,2.05877 22.019892,3.08815"
       transform="translate(0,4.2965642)" /></g></svg>
